<?xml version="1.0" standalone="no"?>
<!DOCTYPE svg PUBLIC "-//W3C//DTD SVG 20010904//EN"
 "http://www.w3.org/TR/2001/REC-SVG-20010904/DTD/svg10.dtd">
<svg version="1.0" xmlns="http://www.w3.org/2000/svg"
 width="500.000000pt" height="500.000000pt" viewBox="0 0 500.000000 500.000000"
 preserveAspectRatio="xMidYMid meet">
<metadata>
Created by potrace 1.11, written by Peter Selinger 2001-2013
</metadata>
<g transform="translate(0.000000,500.000000) scale(0.100000,-0.100000)"
fill="#000000" stroke="none">
<path d="M2270 4989 c-228 -20 -495 -86 -715 -175 -782 -320 -1357 -1024
-1511 -1853 -184 -992 241 -1994 1081 -2547 1053 -693 2452 -496 3273 461 663
773 789 1884 316 2785 -471 895 -1432 1418 -2444 1329z m590 -243 c239 -42
415 -99 635 -206 467 -228 817 -578 1045 -1045 83 -170 124 -279 164 -440 52
-207 60 -282 60 -555 0 -273 -8 -348 -60 -555 -66 -262 -185 -523 -341 -747
l-53 -76 -112 58 c-169 87 -492 201 -811 285 l-68 18 -32 -39 c-207 -254 -561
-614 -684 -698 -88 -60 -135 -68 -206 -34 -127 61 -299 255 -505 568 -52 80
-96 146 -97 148 -3 4 -358 -146 -510 -215 -71 -33 -206 -98 -300 -146 -133
-67 -173 -83 -183 -74 -29 24 -135 160 -199 254 -77 116 -208 381 -252 508
-38 115 -75 262 -98 390 -14 78 -17 156 -17 355 0 273 8 348 60 555 40 161 81
270 164 440 228 467 578 817 1045 1045 262 128 423 174 770 224 75 11 494 -2
585 -18z"/>
<path d="M2310 4715 c-63 -18 -87 -35 -49 -35 31 0 69 -10 69 -19 0 -3 -55 -6
-123 -6 -112 0 -127 -2 -177 -27 l-55 -26 49 -1 c27 -1 47 -3 45 -5 -3 -3 -50
-15 -104 -27 -55 -11 -123 -30 -152 -40 -50 -19 -103 -54 -103 -67 0 -4 26 -5
57 -4 32 2 56 2 53 -1 -3 -3 -34 -17 -69 -32 -173 -72 -275 -169 -356 -337
-30 -62 -58 -133 -64 -158 l-9 -45 45 50 c25 28 43 42 40 32 -65 -186 -91
-317 -82 -401 26 -233 111 -517 179 -596 16 -19 26 -26 22 -15 -14 33 -20 260
-7 281 10 18 10 18 11 -2 0 -12 13 -37 28 -57 16 -20 45 -85 66 -149 21 -62
47 -130 59 -150 43 -78 139 -118 291 -121 92 -2 106 0 157 26 98 48 157 126
205 275 30 91 38 102 74 102 34 0 75 -44 85 -92 13 -56 73 -166 118 -212 79
-82 264 -117 382 -72 122 47 166 103 210 271 25 97 32 113 74 165 l21 25 1
-60 c0 -33 4 -82 8 -110 l7 -50 8 43 c7 37 15 48 57 75 36 24 50 40 54 62 2
17 18 188 34 380 33 391 32 426 -20 533 -17 34 -44 73 -61 85 -27 20 -29 25
-23 64 4 25 1 51 -5 64 l-12 21 -28 -27 -28 -27 -49 16 c-41 14 -53 24 -86 76
-36 59 -37 61 -20 86 20 31 24 28 -113 95 -133 65 -234 99 -314 105 -36 4 -93
15 -128 25 -90 27 -204 32 -272 14z m580 -595 c28 -11 76 -23 108 -26 71 -8
104 -25 135 -66 52 -70 60 -153 27 -277 -11 -41 -20 -97 -20 -125 0 -49 2 -53
69 -121 67 -68 69 -71 76 -134 6 -57 5 -63 -9 -52 -20 17 -153 49 -261 62
-107 13 -154 9 -378 -37 -203 -41 -252 -42 -428 -9 -247 45 -269 47 -380 35
-57 -6 -144 -20 -192 -32 -49 -11 -90 -18 -93 -16 -2 3 13 32 35 65 36 56 39
67 42 144 3 71 9 95 37 151 55 113 163 189 317 223 288 66 794 202 833 224 23
14 24 14 82 -9z m78 -801 c114 -12 138 -22 169 -68 56 -84 -3 -325 -95 -385
-103 -68 -293 -54 -380 27 -65 60 -131 201 -132 279 0 71 79 130 200 147 80
12 129 12 238 0z m-786 -29 c66 -25 118 -77 118 -119 0 -68 -56 -203 -111
-265 -88 -101 -286 -126 -401 -50 -96 63 -155 328 -88 399 12 13 37 29 54 35
107 34 336 35 428 0z"/>
<path d="M2355 1884 c-112 -26 -130 -34 -185 -83 l-55 -49 30 -32 c84 -89 242
-158 336 -147 83 10 209 86 260 158 18 26 19 30 4 52 -20 31 -114 73 -216 98
-91 22 -93 22 -174 3z"/>
</g>
</svg>
