<?xml version="1.0" standalone="no"?>
<!DOCTYPE svg PUBLIC "-//W3C//DTD SVG 20010904//EN"
 "http://www.w3.org/TR/2001/REC-SVG-20010904/DTD/svg10.dtd">
<svg version="1.0" xmlns="http://www.w3.org/2000/svg"
 width="500.000000pt" height="500.000000pt" viewBox="0 0 500.000000 500.000000"
 preserveAspectRatio="xMidYMid meet">
<metadata>
Created by potrace 1.11, written by Peter Selinger 2001-2013
</metadata>
<g transform="translate(0.000000,500.000000) scale(0.100000,-0.100000)"
fill="#000000" stroke="none">
<path d="M2300 4994 c-606 -55 -1142 -305 -1566 -728 -388 -389 -625 -860
-711 -1416 -25 -161 -25 -539 0 -700 86 -556 323 -1027 711 -1416 389 -388
860 -625 1416 -711 161 -25 539 -25 700 0 556 86 1027 323 1416 711 388 389
625 860 711 1416 13 86 17 174 17 350 0 176 -4 264 -17 350 -86 556 -323 1027
-711 1416 -386 385 -861 625 -1406 709 -101 15 -463 28 -560 19z m477 -239
c513 -67 970 -290 1329 -649 553 -554 780 -1343 608 -2114 -57 -253 -175 -528
-324 -750 l-81 -121 -48 29 c-75 46 -239 115 -427 180 -185 63 -498 154 -513
148 -5 -1 -67 -70 -137 -153 -71 -82 -199 -221 -284 -309 -240 -245 -361 -334
-442 -323 -127 17 -358 260 -585 615 -41 64 -75 118 -77 119 -11 11 -516 -211
-778 -342 l-207 -104 -33 37 c-164 182 -341 490 -427 744 -135 398 -158 830
-65 1246 91 405 308 797 608 1098 355 355 811 579 1316 648 144 19 421 20 567
1z"/>
<path d="M2323 4720 c-23 -5 -52 -14 -65 -21 -22 -13 -22 -13 15 -20 81 -13
53 -24 -66 -24 -112 0 -127 -2 -177 -27 l-55 -26 49 -1 c27 -1 47 -3 45 -5 -2
-3 -47 -14 -99 -25 -52 -10 -121 -29 -152 -41 -54 -20 -108 -54 -108 -68 0 -4
24 -5 52 -4 63 4 56 -6 -23 -37 -147 -58 -256 -160 -333 -310 -49 -97 -91
-209 -82 -218 2 -2 22 17 44 43 l40 47 -34 -114 c-54 -175 -60 -234 -41 -370
32 -218 109 -459 169 -528 18 -20 28 -27 24 -16 -14 31 -19 247 -8 275 10 23
11 23 11 4 1 -12 14 -38 31 -59 17 -21 41 -74 56 -123 45 -150 76 -207 129
-241 62 -39 131 -55 240 -56 79 0 97 4 146 28 94 46 161 133 204 267 29 91 42
110 74 110 38 0 65 -33 90 -109 40 -123 107 -211 186 -246 106 -47 200 -55
292 -27 137 43 186 102 228 273 26 104 59 169 86 169 5 0 9 -26 10 -57 0 -32
4 -76 8 -98 l7 -40 8 43 c7 38 14 47 57 74 28 17 51 39 54 51 2 12 18 184 34
382 34 399 33 442 -16 542 -15 30 -41 67 -58 82 -28 24 -31 32 -31 83 1 31 -2
60 -7 64 -4 4 -20 -5 -37 -21 l-29 -28 -46 17 c-36 14 -54 30 -86 78 -38 55
-40 61 -25 77 9 10 16 23 16 29 0 16 -173 102 -285 142 -49 17 -124 35 -165
40 -41 4 -100 15 -130 24 -68 20 -191 28 -247 16z m581 -605 c41 -14 92 -25
113 -25 51 0 107 -39 134 -92 32 -62 35 -138 10 -235 -12 -45 -21 -107 -21
-139 l0 -59 69 -70 c66 -67 69 -73 75 -129 6 -57 6 -59 -11 -44 -10 8 -65 26
-123 39 -161 36 -298 33 -513 -14 -93 -21 -195 -37 -230 -37 -34 0 -134 14
-222 32 -204 40 -343 42 -515 5 -63 -13 -116 -23 -118 -22 -5 5 28 68 47 89
11 12 18 46 22 110 4 69 12 107 32 149 52 114 170 198 324 232 270 60 791 201
833 225 8 5 16 10 17 10 2 0 36 -11 77 -25z m125 -804 c99 -16 138 -69 128
-176 -7 -69 -38 -177 -65 -220 -10 -17 -43 -43 -73 -60 -49 -27 -62 -30 -144
-30 -79 1 -99 4 -147 28 -66 33 -107 76 -146 155 -39 77 -56 144 -48 186 12
63 98 112 231 130 38 5 199 -3 264 -13z m-861 -16 c31 -9 70 -31 90 -50 34
-31 37 -37 36 -87 -3 -105 -74 -238 -156 -294 -55 -37 -156 -59 -231 -51 -66
8 -136 45 -164 85 -34 51 -64 150 -70 232 -5 68 -3 78 19 110 15 22 38 40 61
47 102 34 315 38 415 8z"/>
<path d="M2399 1894 c-19 -7 -43 -13 -55 -13 -52 -2 -122 -33 -171 -76 -29
-26 -53 -52 -52 -58 1 -21 101 -97 178 -135 65 -32 83 -37 150 -37 63 0 86 5
131 27 58 29 153 106 170 139 25 46 -63 101 -230 143 -74 19 -91 21 -121 10z"/>
</g>
</svg>
